<svg width="512" height="512" viewBox="0 0 512 512" xmlns="http://www.w3.org/2000/svg">
  <defs>
    <linearGradient id="grad1" x1="0%" y1="0%" x2="100%" y2="100%">
      <stop offset="0%" style="stop-color:#007AFF;stop-opacity:1" />
      <stop offset="100%" style="stop-color:#0051D5;stop-opacity:1" />
    </linearGradient>
  </defs>
  
  <!-- Background -->
  <rect width="512" height="512" rx="90" ry="90" fill="url(#grad1)"/>
  
  <!-- Waveform visualization -->
  <g transform="translate(256,256)">
    <!-- Center line -->
    <line x1="-180" y1="0" x2="180" y2="0" stroke="#ffffff" stroke-width="2" opacity="0.3"/>
    
    <!-- Main waveform -->
    <path d="M -180 0 L -160 -30 L -140 -20 L -120 -40 L -100 -15 L -80 -35 L -60 -10 L -40 -25 L -20 -45 L 0 0 L 20 45 L 40 25 L 60 10 L 80 35 L 100 15 L 120 40 L 140 20 L 160 30 L 180 0" 
          stroke="#ffffff" stroke-width="4" fill="none" stroke-linecap="round" stroke-linejoin="round"/>
    
    <!-- Secondary waveform (binaural beat representation) -->
    <path d="M -180 0 L -160 20 L -140 15 L -120 25 L -100 10 L -80 22 L -60 8 L -40 18 L -20 28 L 0 0 L 20 -28 L 40 -18 L 60 -8 L 80 -22 L 100 -10 L 120 -25 L 140 -15 L 160 -20 L 180 0" 
          stroke="#ffffff" stroke-width="3" fill="none" stroke-linecap="round" stroke-linejoin="round" opacity="0.7"/>
    
    <!-- Frequency dots -->
    <circle cx="-120" cy="-40" r="3" fill="#ffffff" opacity="0.8"/>
    <circle cx="-40" cy="-25" r="3" fill="#ffffff" opacity="0.8"/>
    <circle cx="40" cy="25" r="3" fill="#ffffff" opacity="0.8"/>
    <circle cx="120" cy="40" r="3" fill="#ffffff" opacity="0.8"/>
  </g>
  
  <!-- Brain focus indicator -->
  <circle cx="256" cy="180" r="8" fill="#ffffff" opacity="0.9"/>
  <circle cx="240" cy="175" r="4" fill="#ffffff" opacity="0.6"/>
  <circle cx="272" cy="175" r="4" fill="#ffffff" opacity="0.6"/>
</svg>
